<svg width="3121" height="775" viewBox="0 0 3121 775" fill="none" xmlns="http://www.w3.org/2000/svg">
<rect width="3121" height="775" rx="200" fill="white"/>
<path d="M530.176 237.916C498.514 223.383 464.549 212.679 429.048 206.547C428.404 206.434 427.76 206.728 427.422 207.315C423.052 215.084 418.219 225.212 414.831 233.184C376.643 227.471 338.646 227.471 301.248 233.184C297.861 225.043 292.847 215.084 288.455 207.315C288.116 206.739 287.473 206.446 286.829 206.547C251.339 212.656 217.385 223.361 185.701 237.916C185.43 238.028 185.193 238.232 185.035 238.491C120.627 334.719 102.978 428.587 111.639 521.28C111.673 521.732 111.932 522.172 112.282 522.443C154.773 553.653 195.942 572.601 236.344 585.157C236.988 585.349 237.676 585.123 238.083 584.581C247.636 571.528 256.161 557.775 263.467 543.299C263.896 542.452 263.489 541.447 262.608 541.108C249.092 535.982 236.231 529.737 223.855 522.635C222.873 522.059 222.794 520.659 223.697 519.993C226.306 518.039 228.903 516.007 231.398 513.963C231.85 513.59 232.471 513.511 233.002 513.748C314.313 550.875 402.343 550.875 482.694 513.748C483.225 513.489 483.846 513.568 484.32 513.94C486.804 515.995 489.413 518.039 492.032 519.993C492.936 520.659 492.879 522.059 491.897 522.635C479.521 529.873 466.649 535.982 453.121 541.085C452.241 541.424 451.845 542.44 452.274 543.299C459.738 557.752 468.252 571.505 477.636 584.558C478.031 585.112 478.731 585.349 479.375 585.146C519.968 572.589 561.137 553.642 603.628 522.432C604.001 522.161 604.238 521.743 604.272 521.291C614.626 414.122 586.916 321.033 530.819 238.503C530.684 238.232 530.447 238.028 530.176 237.916ZM275.605 464.833C251.125 464.833 230.958 442.362 230.958 414.754C230.958 387.146 250.741 364.676 275.605 364.676C300.673 364.676 320.648 387.349 320.252 414.754C320.264 442.351 300.481 464.833 275.605 464.833ZM440.701 464.833C416.22 464.833 396.053 442.362 396.053 414.754C396.053 387.146 415.836 364.676 440.701 364.676C465.768 364.676 485.743 387.349 485.348 414.754C485.348 442.351 465.768 464.833 440.701 464.833Z" fill="#536DFE"/>
<path d="M823.5 547V253.6H904.5C933 253.6 957.75 258.7 978.75 268.9C1000.05 279.1 1016.55 295 1028.25 316.6C1039.95 337.9 1045.8 365.35 1045.8 398.95C1045.8 432.55 1039.95 460.3 1028.25 482.2C1016.85 504.1 1000.8 520.45 980.1 531.25C959.4 541.75 935.55 547 908.55 547H823.5ZM890.1 493.45H900.9C916.5 493.45 930 490.45 941.4 484.45C952.8 478.45 961.65 468.55 967.95 454.75C974.55 440.95 977.85 422.35 977.85 398.95C977.85 375.55 974.55 357.25 967.95 344.05C961.65 330.55 952.8 321.1 941.4 315.7C930 310 916.5 307.15 900.9 307.15H890.1V493.45ZM1186.92 547V375.55H1096.92V323.8H1253.07V547H1186.92ZM1217.07 288.7C1204.47 288.7 1193.97 285.1 1185.57 277.9C1177.17 270.4 1172.97 260.65 1172.97 248.65C1172.97 236.35 1177.17 226.45 1185.57 218.95C1193.97 211.15 1204.47 207.25 1217.07 207.25C1229.97 207.25 1240.47 211.15 1248.57 218.95C1256.97 226.45 1261.17 236.35 1261.17 248.65C1261.17 260.65 1256.97 270.4 1248.57 277.9C1240.47 285.1 1229.97 288.7 1217.07 288.7ZM1464.85 552.4C1445.05 552.4 1425.4 549.1 1405.9 542.5C1386.4 535.6 1369.6 527.5 1355.5 518.2L1383.85 476.8C1397.35 485.5 1411.6 492.1 1426.6 496.6C1441.9 501.1 1457.65 503.35 1473.85 503.35C1486.15 503.35 1495.15 501.55 1500.85 497.95C1506.55 494.05 1509.4 489.55 1509.4 484.45C1509.4 481.15 1508.5 478.45 1506.7 476.35C1505.2 473.95 1502.35 471.85 1498.15 470.05C1494.25 467.95 1488.7 466 1481.5 464.2C1474.6 462.4 1465.6 460.3 1454.5 457.9C1424.2 451.3 1402.45 442.3 1389.25 430.9C1376.05 419.5 1369.45 405.25 1369.45 388.15C1369.45 367.15 1378.6 350.35 1396.9 337.75C1415.2 324.85 1440.25 318.4 1472.05 318.4C1492.15 318.4 1510.3 321.7 1526.5 328.3C1543 334.6 1557.1 341.5 1568.8 349L1539.1 388.6C1528 381.7 1516.15 376.45 1503.55 372.85C1490.95 369.25 1478.5 367.45 1466.2 367.45C1459.3 367.45 1453.6 368.2 1449.1 369.7C1444.6 370.9 1441.15 373 1438.75 376C1436.35 378.7 1435.15 381.7 1435.15 385C1435.15 391 1439.05 395.5 1446.85 398.5C1454.65 401.2 1468 404.65 1486.9 408.85C1509.7 413.95 1527.55 419.8 1540.45 426.4C1553.35 433 1562.2 440.65 1567 449.35C1572.1 457.75 1574.65 468.1 1574.65 480.4C1574.65 493.9 1570.45 506.05 1562.05 516.85C1553.95 527.65 1541.65 536.35 1525.15 542.95C1508.95 549.25 1488.85 552.4 1464.85 552.4ZM1755.82 552.4C1732.42 552.4 1711.27 547.9 1692.37 538.9C1673.77 529.6 1658.92 516.25 1647.82 498.85C1637.02 481.15 1631.62 460 1631.62 435.4C1631.62 410.8 1637.62 389.8 1649.62 372.4C1661.62 354.7 1677.37 341.35 1696.87 332.35C1716.67 323.05 1737.97 318.4 1760.77 318.4C1778.47 318.4 1794.52 321.25 1808.92 326.95C1823.32 332.35 1835.17 339.55 1844.47 348.55L1813.87 389.5C1805.17 383.5 1796.77 379.15 1788.67 376.45C1780.87 373.45 1772.77 371.95 1764.37 371.95C1751.77 371.95 1740.52 374.5 1730.62 379.6C1720.72 384.7 1713.07 392.05 1707.67 401.65C1702.27 411.25 1699.57 422.5 1699.57 435.4C1699.57 448.3 1702.12 459.55 1707.22 469.15C1712.62 478.75 1719.97 486.1 1729.27 491.2C1738.87 496.3 1749.82 498.85 1762.12 498.85C1773.82 498.85 1784.47 496.75 1794.07 492.55C1803.97 488.35 1812.97 483.4 1821.07 477.7L1847.62 519.55C1834.42 530.65 1819.57 538.9 1803.07 544.3C1786.87 549.7 1771.12 552.4 1755.82 552.4ZM2006.3 552.4C1986.8 552.4 1968.35 547.9 1950.95 538.9C1933.55 529.6 1919.45 516.25 1908.65 498.85C1897.85 481.15 1892.45 460 1892.45 435.4C1892.45 410.8 1897.85 389.8 1908.65 372.4C1919.45 354.7 1933.55 341.35 1950.95 332.35C1968.35 323.05 1986.8 318.4 2006.3 318.4C2025.8 318.4 2044.25 323.05 2061.65 332.35C2079.05 341.35 2093.15 354.7 2103.95 372.4C2114.75 389.8 2120.15 410.8 2120.15 435.4C2120.15 460 2114.75 481.15 2103.95 498.85C2093.15 516.25 2079.05 529.6 2061.65 538.9C2044.25 547.9 2025.8 552.4 2006.3 552.4ZM2006.3 498.85C2016.5 498.85 2024.9 496.3 2031.5 491.2C2038.4 486.1 2043.5 478.75 2046.8 469.15C2050.4 459.55 2052.2 448.3 2052.2 435.4C2052.2 422.5 2050.4 411.25 2046.8 401.65C2043.5 392.05 2038.4 384.7 2031.5 379.6C2024.9 374.5 2016.5 371.95 2006.3 371.95C1996.1 371.95 1987.55 374.5 1980.65 379.6C1974.05 384.7 1968.95 392.05 1965.35 401.65C1962.05 411.25 1960.4 422.5 1960.4 435.4C1960.4 448.3 1962.05 459.55 1965.35 469.15C1968.95 478.75 1974.05 486.1 1980.65 491.2C1987.55 496.3 1996.1 498.85 2006.3 498.85ZM2193.32 547V323.8H2247.32L2252.72 372.4H2254.07C2265.17 354.1 2278.52 340.6 2294.12 331.9C2310.02 322.9 2326.82 318.4 2344.52 318.4C2354.42 318.4 2362.37 319.15 2368.37 320.65C2374.67 322.15 2381.12 324.4 2387.72 327.4L2374.22 382.75C2367.32 380.65 2361.02 379.15 2355.32 378.25C2349.92 377.05 2343.02 376.45 2334.62 376.45C2320.82 376.45 2307.17 380.5 2293.67 388.6C2280.47 396.7 2269.07 410.8 2259.47 430.9V547H2193.32ZM2526.15 552.4C2497.95 552.4 2475.15 542.05 2457.75 521.35C2440.65 500.35 2432.1 471.7 2432.1 435.4C2432.1 411.1 2436.6 390.25 2445.6 372.85C2454.9 355.45 2466.9 342.1 2481.6 332.8C2496.3 323.2 2511.6 318.4 2527.5 318.4C2539.8 318.4 2550.45 320.5 2559.45 324.7C2568.45 328.9 2576.55 334.75 2583.75 342.25H2585.55L2582.4 307.6V231.55H2648.55V547H2594.55L2589.6 524.05H2588.25C2580.15 532.15 2570.55 538.9 2559.45 544.3C2548.65 549.7 2537.55 552.4 2526.15 552.4ZM2543.25 498.4C2550.75 498.4 2557.65 496.9 2563.95 493.9C2570.55 490.6 2576.7 485.2 2582.4 477.7V387.25C2576.4 381.85 2570.25 378.1 2563.95 376C2557.95 373.6 2551.65 372.4 2545.05 372.4C2536.95 372.4 2529.45 374.65 2522.55 379.15C2515.65 383.65 2510.1 390.55 2505.9 399.85C2502 408.85 2500.05 420.4 2500.05 434.5C2500.05 456.4 2503.8 472.6 2511.3 483.1C2518.8 493.3 2529.45 498.4 2543.25 498.4Z" fill="black"/>
</svg>
