<svg width="3121" height="775" viewBox="0 0 3121 775" fill="none" xmlns="http://www.w3.org/2000/svg">
<rect width="3121" height="775" rx="200" fill="white"/>
<path d="M357.999 116.166C286.17 116.166 217.282 144.7 166.491 195.491C115.7 246.282 87.166 315.17 87.166 386.999C87.166 458.829 115.7 527.716 166.491 578.507C217.282 629.299 286.17 657.833 357.999 657.833C429.829 657.833 498.716 629.299 549.507 578.507C600.299 527.716 628.833 458.829 628.833 386.999C628.833 315.17 600.299 246.282 549.507 195.491C498.716 144.7 429.829 116.166 357.999 116.166Z" fill="#29B6F6"/>
<path d="M492.739 265.126L442.012 524.124C442.012 524.124 439.832 535.959 425.152 535.959C417.352 535.959 413.331 532.249 413.331 532.249L303.454 441.073L249.693 413.976L180.698 395.627C180.698 395.627 168.416 392.079 168.416 381.923C168.416 373.459 181.05 369.424 181.05 369.424L469.705 254.753C469.705 254.753 478.52 251.57 484.952 251.584C488.907 251.584 493.416 253.277 493.416 258.355C493.416 261.74 492.739 265.126 492.739 265.126Z" fill="white"/>
<path d="M344.459 475.089L298.065 520.778C298.065 520.778 296.047 522.336 293.352 522.403C292.418 522.43 291.416 522.281 290.387 521.821L303.441 441.045L344.459 475.089Z" fill="#B0BEC5"/>
<path d="M437.855 308.404C435.566 305.425 431.341 304.883 428.362 307.144L249.666 414.083C249.666 414.083 278.185 493.87 282.532 507.683C286.892 521.509 290.386 521.834 290.386 521.834L303.44 441.058L436.582 317.883C439.561 315.621 440.116 311.383 437.855 308.404Z" fill="#CFD8DC"/>
<path d="M893.7 547V309.4H805.95V253.6H1048.05V309.4H960.3V547H893.7ZM1210.32 552.4C1187.22 552.4 1166.22 547.9 1147.32 538.9C1128.72 529.6 1113.87 516.25 1102.77 498.85C1091.97 481.15 1086.57 460 1086.57 435.4C1086.57 411.1 1092.12 390.25 1103.22 372.85C1114.32 355.15 1128.72 341.65 1146.42 332.35C1164.12 323.05 1182.87 318.4 1202.67 318.4C1225.77 318.4 1245.12 323.2 1260.72 332.8C1276.32 342.1 1288.02 354.85 1295.82 371.05C1303.92 386.95 1307.97 405.1 1307.97 425.5C1307.97 431.5 1307.52 437.35 1306.62 443.05C1306.02 448.45 1305.42 452.5 1304.82 455.2H1135.62V410.65H1260.27L1249.92 423.25C1249.92 405.25 1246.02 391.75 1238.22 382.75C1230.72 373.45 1219.62 368.8 1204.92 368.8C1194.12 368.8 1184.67 371.2 1176.57 376C1168.47 380.8 1162.17 388.15 1157.67 398.05C1153.17 407.95 1150.92 420.4 1150.92 435.4C1150.92 450.7 1153.62 463.3 1159.02 473.2C1164.42 482.8 1172.22 490 1182.42 494.8C1192.62 499.6 1204.92 502 1219.32 502C1229.52 502 1239.12 500.65 1248.12 497.95C1257.42 495.25 1267.02 491.35 1276.92 486.25L1298.97 526.3C1286.07 534.4 1271.82 540.85 1256.22 545.65C1240.62 550.15 1225.32 552.4 1210.32 552.4ZM1509.4 552.4C1481.5 552.4 1460.35 544 1445.95 527.2C1431.55 510.4 1424.35 487.9 1424.35 459.7V283.75H1354.6V232H1490.5V462.4C1490.5 476.2 1494.25 485.8 1501.75 491.2C1509.25 496.3 1517.5 498.85 1526.5 498.85C1531.9 498.85 1537.3 498.25 1542.7 497.05C1548.4 495.85 1554.7 494.05 1561.6 491.65L1576 540.25C1564.6 543.85 1554.1 546.7 1544.5 548.8C1535.2 551.2 1523.5 552.4 1509.4 552.4ZM1749.97 552.4C1726.87 552.4 1705.87 547.9 1686.97 538.9C1668.37 529.6 1653.52 516.25 1642.42 498.85C1631.62 481.15 1626.22 460 1626.22 435.4C1626.22 411.1 1631.77 390.25 1642.87 372.85C1653.97 355.15 1668.37 341.65 1686.07 332.35C1703.77 323.05 1722.52 318.4 1742.32 318.4C1765.42 318.4 1784.77 323.2 1800.37 332.8C1815.97 342.1 1827.67 354.85 1835.47 371.05C1843.57 386.95 1847.62 405.1 1847.62 425.5C1847.62 431.5 1847.17 437.35 1846.27 443.05C1845.67 448.45 1845.07 452.5 1844.47 455.2H1675.27V410.65H1799.92L1789.57 423.25C1789.57 405.25 1785.67 391.75 1777.87 382.75C1770.37 373.45 1759.27 368.8 1744.57 368.8C1733.77 368.8 1724.32 371.2 1716.22 376C1708.12 380.8 1701.82 388.15 1697.32 398.05C1692.82 407.95 1690.57 420.4 1690.57 435.4C1690.57 450.7 1693.27 463.3 1698.67 473.2C1704.07 482.8 1711.87 490 1722.07 494.8C1732.27 499.6 1744.57 502 1758.97 502C1769.17 502 1778.77 500.65 1787.77 497.95C1797.07 495.25 1806.67 491.35 1816.57 486.25L1838.62 526.3C1825.72 534.4 1811.47 540.85 1795.87 545.65C1780.27 550.15 1764.97 552.4 1749.97 552.4ZM1995.95 641.95C1976.45 641.95 1959.05 639.85 1943.75 635.65C1928.75 631.75 1916.75 625.6 1907.75 617.2C1899.05 608.8 1894.7 598 1894.7 584.8C1894.7 575.8 1897.55 567.55 1903.25 560.05C1909.25 552.55 1917.95 545.95 1929.35 540.25V538.45C1923.05 534.25 1917.65 529.15 1913.15 523.15C1908.95 517.15 1906.85 509.5 1906.85 500.2C1906.85 492.7 1909.25 485.2 1914.05 477.7C1919.15 470.2 1925.6 463.75 1933.4 458.35V456.55C1925.3 451.15 1918.4 443.5 1912.7 433.6C1907 423.7 1904.15 412.3 1904.15 399.4C1904.15 381.4 1908.5 366.4 1917.2 354.4C1926.2 342.4 1937.9 333.4 1952.3 327.4C1967 321.4 1982.75 318.4 1999.55 318.4C2013.35 318.4 2025.65 320.2 2036.45 323.8H2126.9V372.4H2081.9C2084.6 375.7 2086.85 380.05 2088.65 385.45C2090.75 390.55 2091.8 395.95 2091.8 401.65C2091.8 418.75 2087.6 432.85 2079.2 443.95C2071.1 454.75 2060.15 462.85 2046.35 468.25C2032.55 473.65 2016.95 476.35 1999.55 476.35C1995.35 476.35 1990.55 476.05 1985.15 475.45C1979.75 474.55 1974.35 473.35 1968.95 471.85C1965.35 474.25 1962.8 476.65 1961.3 479.05C1959.8 481.45 1959.05 484.6 1959.05 488.5C1959.05 494.2 1962.05 498.4 1968.05 501.1C1974.35 503.8 1983.95 505.15 1996.85 505.15H2038.25C2067.65 505.15 2090 509.5 2105.3 518.2C2120.9 526.9 2128.7 541.3 2128.7 561.4C2128.7 577 2123.3 590.8 2112.5 602.8C2101.7 615.1 2086.25 624.7 2066.15 631.6C2046.35 638.5 2022.95 641.95 1995.95 641.95ZM1999.55 436.3C2005.85 436.3 2011.55 434.95 2016.65 432.25C2021.75 429.55 2025.8 425.5 2028.8 420.1C2031.8 414.4 2033.3 407.5 2033.3 399.4C2033.3 391.6 2031.8 385 2028.8 379.6C2025.8 374.2 2021.75 370.15 2016.65 367.45C2011.55 364.45 2005.85 362.95 1999.55 362.95C1993.55 362.95 1988 364.45 1982.9 367.45C1977.8 370.15 1973.75 374.2 1970.75 379.6C1967.75 385 1966.25 391.6 1966.25 399.4C1966.25 407.5 1967.75 414.4 1970.75 420.1C1973.75 425.5 1977.8 429.55 1982.9 432.25C1988 434.95 1993.55 436.3 1999.55 436.3ZM2005.4 600.1C2017.4 600.1 2027.9 598.9 2036.9 596.5C2045.9 594.1 2052.95 590.8 2058.05 586.6C2063.15 582.7 2065.7 578.2 2065.7 573.1C2065.7 565.6 2062.4 560.8 2055.8 558.7C2049.2 556.9 2039.45 556 2026.55 556H1998.65C1990.55 556 1983.8 555.7 1978.4 555.1C1973.3 554.5 1968.65 553.75 1964.45 552.85C1958.75 556.45 1954.7 559.9 1952.3 563.2C1949.9 566.8 1948.7 570.7 1948.7 574.9C1948.7 583 1953.8 589.15 1964 593.35C1974.2 597.85 1988 600.1 2005.4 600.1ZM2193.32 547V323.8H2247.32L2252.72 372.4H2254.07C2265.17 354.1 2278.52 340.6 2294.12 331.9C2310.02 322.9 2326.82 318.4 2344.52 318.4C2354.42 318.4 2362.37 319.15 2368.37 320.65C2374.67 322.15 2381.12 324.4 2387.72 327.4L2374.22 382.75C2367.32 380.65 2361.02 379.15 2355.32 378.25C2349.92 377.05 2343.02 376.45 2334.62 376.45C2320.82 376.45 2307.17 380.5 2293.67 388.6C2280.47 396.7 2269.07 410.8 2259.47 430.9V547H2193.32ZM2511.75 552.4C2496.75 552.4 2483.7 549.4 2472.6 543.4C2461.8 537.4 2453.4 529.3 2447.4 519.1C2441.4 508.9 2438.4 497.5 2438.4 484.9C2438.4 460 2449.65 440.95 2472.15 427.75C2494.95 414.55 2532.75 406.45 2585.55 403.45C2584.65 396.55 2582.4 390.7 2578.8 385.9C2575.2 381.1 2569.95 377.5 2563.05 375.1C2556.45 372.4 2548.05 371.05 2537.85 371.05C2530.65 371.05 2523.45 371.95 2516.25 373.75C2509.05 375.25 2501.55 377.65 2493.75 380.95C2486.25 383.95 2478.3 387.55 2469.9 391.75L2446.5 348.55C2456.7 342.55 2467.35 337.3 2478.45 332.8C2489.85 328.3 2501.55 324.85 2513.55 322.45C2525.85 319.75 2538.3 318.4 2550.9 318.4C2571.9 318.4 2589.9 322.15 2604.9 329.65C2619.9 336.85 2631.45 347.95 2639.55 362.95C2647.65 377.65 2651.7 396.4 2651.7 419.2V547H2597.7L2592.75 521.8H2590.95C2579.85 530.2 2567.55 537.4 2554.05 543.4C2540.55 549.4 2526.45 552.4 2511.75 552.4ZM2532.9 501.1C2542.8 501.1 2552.1 499.15 2560.8 495.25C2569.5 491.05 2577.75 485.95 2585.55 479.95V443.05C2563.65 444.25 2546.55 446.5 2534.25 449.8C2522.25 453.1 2513.85 457.3 2509.05 462.4C2504.25 467.5 2501.85 473.35 2501.85 479.95C2501.85 484.45 2503.05 488.35 2505.45 491.65C2508.15 494.95 2511.75 497.35 2516.25 498.85C2521.05 500.35 2526.6 501.1 2532.9 501.1ZM2696.52 547V323.8H2746.47L2750.97 351.25H2752.77C2756.97 342.25 2762.82 334.6 2770.32 328.3C2777.82 321.7 2788.02 318.4 2800.92 318.4C2810.52 318.4 2818.77 321.55 2825.67 327.85C2832.57 333.85 2837.22 342.85 2839.62 354.85C2843.82 344.65 2849.82 336.1 2857.62 329.2C2865.72 322 2876.22 318.4 2889.12 318.4C2905.02 318.4 2917.32 324.85 2926.02 337.75C2934.72 350.65 2939.07 368.2 2939.07 390.4V547H2876.07V394.9C2876.07 381.4 2872.02 374.65 2863.92 374.65C2859.72 374.65 2855.97 376.45 2852.67 380.05C2849.67 383.35 2846.67 388.75 2843.67 396.25V547H2791.92V394.9C2791.92 388 2790.87 382.9 2788.77 379.6C2786.67 376.3 2783.52 374.65 2779.32 374.65C2775.12 374.65 2771.52 376.45 2768.52 380.05C2765.52 383.35 2762.52 388.75 2759.52 396.25V547H2696.52Z" fill="black"/>
</svg>
